:SAMPLES-PER-SECOND 30
:FULLY-SPECIFIED
:DEGREES
521
root  70.7513 38.4498 3.32412 -20.9146 -80.6516 20.6735
RightUpLeg  -20.7186 -16.1359 -7.16861
RightLeg  16.0335 -0.375773 -0.166845
RightFoot  -7.3795 -0.372427 9.27231
RightToes  -9.31324e-010 0 -3.6325e-017
Spine  13.4541 2.8037 9.12239
Spine1  2.60005 7.34146 -16.6316
HEad  10.7236 44.0348 -15.7921
LeftShoulder1  -0.606403 5.15182 -30.6687
LeftArm  1.98804 12.3414 -37.8283
LeftForeArm  21.018 -26.5258 -4.56701
LeftHand  -0.00809387 7.64864 1.66132
RightShoulder  -0.767313 -5.60062 29.9406
RightArm  19.1816 4.70335 49.7544
RightForeArm  12.6924 14.354 6.47268
RightHand  -0.347662 6.15037 -3.8457
LeftUpLeg  -3.06725 2.28158 -3.0484
LeftLeg  18.2655 -2.3406 -0.388587
LeftFoot  -14.4857 0.140737 1.9878
LeftToes  8.61288e-010 -5.99147e-011 2.1039e-011
522
root  71.4842 38.6446 3.25716 -17.5944 -80.1692 17.4318
RightUpLeg  -19.2969 -14.5399 -7.08474
RightLeg  22.1593 -1.35653 -0.850132
RightFoot  -8.03175 -0.283847 7.94477
RightToes  -9.31324e-010 0 -3.6325e-017
Spine  13.5258 2.98546 8.74706
Spine1  1.9375 7.29185 -16.3727
HEad  10.4804 44.1231 -15.8714
LeftShoulder1  -0.532673 4.95117 -30.6297
LeftArm  1.69911 13.5261 -36.7831
LeftForeArm  19.072 -23.8282 -4.1367
LeftHand  0.00358263 8.1493 1.82881
RightShoulder  -0.609175 -5.16656 29.8595
RightArm  24.4623 5.42153 50.8829
RightForeArm  9.99183 19.6872 4.9291
RightHand  -0.170001 3.64932 -2.45232
LeftUpLeg  -3.78311 3.27337 -2.67043
LeftLeg  16.7583 -3.76375 -0.742167
LeftFoot  -12.3621 0.097099 2.47441
LeftToes  8.61288e-010 -5.99147e-011 2.1039e-011
523
root  72.1711 38.7635 3.19317 -15.2175 -79.0739 15.0932
RightUpLeg  -17.065 -13.3645 -7.23907
RightLeg  27.3238 -2.12233 -1.40597
RightFoot  -8.84184 -0.231069 7.81576
RightToes  -9.31324e-010 0 -3.6325e-017
Spine  13.4626 3.05378 8.08316
Spine1  1.70213 7.05811 -15.6725
HEad  10.7113 43.5227 -15.5588
LeftShoulder1  -0.349033 4.46154 -30.3214
LeftArm  1.45158 14.6942 -35.9219
LeftForeArm  18.6138 -21.4108 -4.15007
LeftHand  0.0171187 9.50995 1.7482
RightShoulder  -0.731399 -5.50212 29.9293
RightArm  26.0265 6.62766 51.5692
RightForeArm  8.42664 23.8638 4.64421
RightHand  -0.195266 4.99669 -2.51118
LeftUpLeg  -4.63946 3.08323 -2.72522
LeftLeg  15.7842 -4.74106 -0.881811
LeftFoot  -10.5498 0.0446351 2.6705
LeftToes  8.61288e-010 -5.99147e-011 2.1039e-011
524
root  72.822 38.8149 3.10839 -14.0452 -77.5773 14.1339
RightUpLeg  -14.5546 -13.5912 -7.38573
RightLeg  31.6373 -2.10941 -1.63769
RightFoot  -9.51923 -0.180872 7.2828
RightToes  -9.31324e-010 0 -3.6325e-017
Spine  12.2844 3.10172 7.17379
Spine1  3.27259 6.88887 -14.5755
HEad  10.0178 42.3269 -16.0944
LeftShoulder1  -0.303146 4.3321 -30.46
LeftArm  0.0856081 14.5962 -34.8527
LeftForeArm  21.3191 -18.929 -4.67685
LeftHand  -0.0347571 6.57271 0.0923014
RightShoulder  -0.761185 -5.60664 29.543
RightArm  23.297 7.3291 52.231
RightForeArm  10.5398 28.8291 5.6705
RightHand  -0.188663 6.72064 -2.14606
LeftUpLeg  -5.8084 2.94947 -3.03005
LeftLeg  15.2069 -6.02858 -1.24902
LeftFoot  -8.89459 -0.011432 3.05093
LeftToes  8.61288e-010 -5.99147e-011 2.1039e-011
525
root  73.4219 38.8328 3.02942 -14.5327 -76.5122 14.6325
RightUpLeg  -11.3276 -13.4081 -7.61249
RightLeg  34.7222 -2.44358 -2.07586
RightFoot  -10.2641 -0.133381 6.77026
RightToes  -9.31324e-010 0 -3.6325e-017
Spine  11.5064 3.33673 6.79538
Spine1  4.09651 7.05246 -14.2643
HEad  9.85489 41.5096 -16.3857
LeftShoulder1  -0.292338 4.29985 -30.5816
LeftArm  -1.06355 14.6294 -33.67
LeftForeArm  24.2892 -16.9538 -5.25697
LeftHand  -0.0295097 6.29064 -1.09596
RightShoulder  -0.745531 -5.57736 29.2973
RightArm  21.8185 7.4441 52.6487
RightForeArm  12.7622 33.2461 6.64589
RightHand  -0.196796 5.84689 -2.35784
LeftUpLeg  -6.61067 3.01259 -3.48498
LeftLeg  14.6539 -6.94325 -1.60496
LeftFoot  -7.44649 -0.0697076 3.35884
LeftToes  8.61288e-010 -5.99147e-011 2.1039e-011
526
root  74.0596 38.8002 2.9222 -15.1785 -75.8771 15.4759
RightUpLeg  -8.35925 -13.0796 -7.64819
RightLeg  36.8457 -3.39014 -2.98028
RightFoot  -10.5762 -0.112921 6.16456
RightToes  -9.31324e-010 0 -3.6325e-017
Spine  11.3605 3.55031 7.04853
Spine1  3.91497 7.33971 -14.7199
HEad  10.269 40.4903 -16.1089
LeftShoulder1  -0.313795 4.35284 -30.8251
LeftArm  0.317789 15.2638 -32.8284
LeftForeArm  22.8499 -17.0131 -5.46972
LeftHand  -0.0294414 10.1105 0.772041
RightShoulder  -0.757764 -5.61208 29.2913
RightArm  21.9047 7.87185 53.2045
RightForeArm  14.1987 36.3517 7.40623
RightHand  -0.197811 5.42595 -2.42998
LeftUpLeg  -7.9764 2.83783 -3.96073
LeftLeg  14.7097 -7.2941 -1.86019
LeftFoot  -6.16754 -0.126294 3.63087
LeftToes  8.61288e-010 -5.99147e-011 2.1039e-011
527
root  74.6954 38.7568 2.81346 -16.9516 -75.9191 17.3146
RightUpLeg  -5.11584 -12.2567 -7.91172
RightLeg  37.5961 -4.07388 -3.61878
RightFoot  -10.809 -0.0985368 5.42501
RightToes  -9.31324e-010 0 -3.6325e-017
Spine  11.4013 3.98015 7.78296
Spine1  3.88014 8.05246 -15.6502
HEad  10.7667 38.9995 -15.6698
LeftShoulder1  -0.31501 4.3582 -30.7231
LeftArm  0.431061 16.4656 -32.7014
LeftForeArm  22.5054 -17.7852 -5.12983
LeftHand  -0.0263524 9.64944 0.732752
RightShoulder  -0.778627 -5.6501 29.6339
RightArm  22.7581 8.39179 53.3572
RightForeArm  14.46 38.5261 8.02311
RightHand  -0.272514 6.30122 -3.04542
LeftUpLeg  -9.09461 3.06639 -4.40363
LeftLeg  14.696 -7.37083 -2.13044
LeftFoot  -5.02722 -0.161085 3.46603
LeftToes  8.61288e-010 -5.99147e-011 2.1039e-011
528
root  75.3244 38.6996 2.73577 -18.7155 -76.2784 19.0459
RightUpLeg  -1.72782 -10.7915 -8.16727
RightLeg  36.8114 -4.54362 -3.90701
RightFoot  -11.535 -0.0704363 4.99057
RightToes  -9.31324e-010 0 -3.6325e-017
Spine  11.1164 4.26991 8.93975
Spine1  4.47072 8.72025 -16.5597
HEad  10.5669 37.4959 -16.1833
LeftShoulder1  -0.400976 4.57752 -31.2066
LeftArm  -0.593446 17.3245 -32.8304
LeftForeArm  21.7309 -18.2063 -4.84104
LeftHand  -0.0345374 8.64622 0.0348342
RightShoulder  -0.802891 -5.70321 29.8716
RightArm  24.9434 9.5165 53.7
RightForeArm  13.6158 39.0849 8.24907
RightHand  -0.306902 5.99494 -3.45471
LeftUpLeg  -10.1447 3.56042 -4.72011
LeftLeg  14.7959 -7.4644 -2.3892
LeftFoot  -4.07026 -0.198564 3.51203
LeftToes  8.61288e-010 -5.99147e-011 2.1039e-011
529
root  75.9915 38.6666 2.67037 -20.5616 -77.5006 21.057
RightUpLeg  1.16236 -8.8294 -8.36257
RightLeg  34.6169 -3.80253 -3.06989
RightFoot  -12.2019 -0.0515956 4.11517
RightToes  -9.31324e-010 0 -3.6325e-017
Spine  11.1258 4.55303 10.7502
Spine1  4.25055 9.43772 -17.8496
HEad  9.47725 38.3018 -17.1497
LeftShoulder1  -0.436813 4.6589 -31.6746
LeftArm  -2.36346 18.596 -33.2097
LeftForeArm  21.4004 -18.2079 -4.64336
LeftHand  -0.0368112 5.67076 -1.08517
RightShoulder  -0.825507 -5.76282 29.9249
RightArm  28.4782 10.9262 54.5946
RightForeArm  12.1522 37.8296 7.96173
RightHand  -0.309167 6.40838 -3.37931
LeftUpLeg  -11.307 4.04597 -4.82603
LeftLeg  14.5728 -6.6617 -2.25954
LeftFoot  -2.97566 -0.243674 3.57254
LeftToes  8.61288e-010 -5.99147e-011 2.1039e-011
530
root  76.7607 38.6256 2.62014 -22.8106 -78.5471 23.3794
RightUpLeg  3.61553 -7.4739 -8.90764
RightLeg  31.6711 -3.51029 -2.56933
RightFoot  -12.4118 -0.0492685 3.64871
RightToes  -9.31324e-010 0 -3.6325e-017
Spine  11.5873 4.48852 12.3828
Spine1  3.87272 9.67755 -18.6227
HEad  8.93108 36.3635 -17.6506
LeftShoulder1  -0.411636 4.59765 -31.6147
LeftArm  -4.33602 19.9677 -35.4602
LeftForeArm  20.9771 -18.2419 -4.44622
LeftHand  -0.0442804 7.0994 -0.261481
RightShoulder  -0.79013 -5.66287 29.9989
RightArm  32.3874 12.2498 55.2971
RightForeArm  10.9407 36.0001 7.50866
RightHand  -0.285659 6.77941 -3.04703
LeftUpLeg  -12.4261 4.20087 -5.00354
LeftLeg  14.1123 -5.77074 -2.00045
LeftFoot  -1.63852 -0.304132 3.70069
LeftToes  8.61288e-010 -5.99147e-011 2.1039e-011
